<svg xmlns="http://www.w3.org/2000/svg" viewBox="0 0 760 208" width="760" height="208" role="img" aria-label="When you prompt (prompts count)"><style>text{font-family:system-ui,-apple-system,"Segoe UI",sans-serif;font-variant-numeric:tabular-nums}.bg{fill:#fcfcfb;stroke:rgba(11,11,11,.10)}.tp{fill:#0b0b0b}.ts{fill:#52514e}.tm{fill:#898781}.grid{stroke:#e1e0d9;stroke-width:1}.base{stroke:#c3c2b7;stroke-width:1}.so{fill:#b5b3ad}.lo{stroke:#b5b3ad}.qe{fill:#f0efec}.ring{stroke:#fcfcfb}.area{fill-opacity:.1}.s0{fill:#2a78d6}.l0{stroke:#2a78d6}.s1{fill:#eb6834}.l1{stroke:#eb6834}.s2{fill:#1baf7a}.l2{stroke:#1baf7a}.s3{fill:#eda100}.l3{stroke:#eda100}.s4{fill:#e87ba4}.l4{stroke:#e87ba4}.s5{fill:#008300}.l5{stroke:#008300}.s6{fill:#4a3aa7}.l6{stroke:#4a3aa7}.s7{fill:#e34948}.l7{stroke:#e34948}.q0{fill:#cde2fb}.q1{fill:#9ec5f4}.q2{fill:#6da7ec}.q3{fill:#3987e5}.q4{fill:#256abf}.q5{fill:#184f95}.q6{fill:#0d366b}.r0{fill:#f8d4d4}.r1{fill:#ec8f8f}.r2{fill:#c42f2f}.a0{fill:#fbe3e3}.a1{fill:#f5b8b8}.a2{fill:#ec8f8f}.a3{fill:#d65252}.a4{fill:#a82525}.tq0{fill:#0b0b0b}.tq1{fill:#0b0b0b}.tq2{fill:#0b0b0b}.tq3{fill:#ffffff}.tq4{fill:#ffffff}.tq5{fill:#ffffff}.tq6{fill:#ffffff}.tr0{fill:#0b0b0b}.tr1{fill:#0b0b0b}.tr2{fill:#ffffff}.ta0{fill:#0b0b0b}.ta1{fill:#0b0b0b}.ta2{fill:#0b0b0b}.ta3{fill:#ffffff}.ta4{fill:#ffffff}.tw{fill:#ffffff}@media (prefers-color-scheme:dark){.bg{fill:#1a1a19;stroke:rgba(255,255,255,.10)}.tp{fill:#fff}.ts{fill:#c3c2b7}.tm{fill:#898781}.grid{stroke:#2c2c2a}.base{stroke:#383835}.so{fill:#5c5b57}.lo{stroke:#5c5b57}.qe{fill:#262624}.ring{stroke:#1a1a19}.s0{fill:#3987e5}.l0{stroke:#3987e5}.s1{fill:#d95926}.l1{stroke:#d95926}.s2{fill:#199e70}.l2{stroke:#199e70}.s3{fill:#c98500}.l3{stroke:#c98500}.s4{fill:#d55181}.l4{stroke:#d55181}.s5{fill:#008300}.l5{stroke:#008300}.s6{fill:#9085e9}.l6{stroke:#9085e9}.s7{fill:#e66767}.l7{stroke:#e66767}.q0{fill:#16263a}.q1{fill:#123a66}.q2{fill:#184f95}.q3{fill:#256abf}.q4{fill:#3987e5}.q5{fill:#6da7ec}.q6{fill:#b7d3f6}.r0{fill:#4a2023}.r1{fill:#8c2c2f}.r2{fill:#e25555}.a0{fill:#3a1a1c}.a1{fill:#5e2427}.a2{fill:#8c2c2f}.a3{fill:#c43c3f}.a4{fill:#f07070}.tq0{fill:#ffffff}.tq1{fill:#ffffff}.tq2{fill:#ffffff}.tq3{fill:#ffffff}.tq4{fill:#ffffff}.tq5{fill:#0b0b0b}.tq6{fill:#0b0b0b}.tr0{fill:#ffffff}.tr1{fill:#ffffff}.tr2{fill:#ffffff}.ta0{fill:#ffffff}.ta1{fill:#ffffff}.ta2{fill:#ffffff}.ta3{fill:#ffffff}.ta4{fill:#0b0b0b}.tw{fill:#ffffff}}</style><rect class="bg" x=".5" y=".5" width="759" height="207" rx="10"/><text class="tp" x="20" y="30" font-size="15" font-weight="600">When you prompt (prompts count)</text><text class="ts" x="20" y="50" font-size="12">Prompts per day and hour · this month so far (01 Oct – today) · Asia/Kuala_Lumpur time · weekends in grey</text><text class="tm" x="97.5" y="72" font-size="11" text-anchor="middle">00:00</text><text class="tm" x="178.5" y="72" font-size="11" text-anchor="middle">03:00</text><text class="tm" x="259.5" y="72" font-size="11" text-anchor="middle">06:00</text><text class="tm" x="340.5" y="72" font-size="11" text-anchor="middle">09:00</text><text class="tm" x="421.5" y="72" font-size="11" text-anchor="middle">12:00</text><text class="tm" x="502.5" y="72" font-size="11" text-anchor="middle">15:00</text><text class="tm" x="583.5" y="72" font-size="11" text-anchor="middle">18:00</text><text class="tm" x="664.5" y="72" font-size="11" text-anchor="middle">21:00</text><text class="ts" x="74" y="93.0" font-size="11" text-anchor="end">Thu 01 Oct</text><rect class="q2" x="84.0" y="80.0" width="25" height="16" rx="3"><title>Thu 01 Oct 00:00 · 3 prompts</title></rect><rect class="qe" x="111.0" y="80.0" width="25" height="16" rx="3"><title>Thu 01 Oct 01:00 · 0 prompts</title></rect><rect class="qe" x="138.0" y="80.0" width="25" height="16" rx="3"><title>Thu 01 Oct 02:00 · 0 prompts</title></rect><rect class="qe" x="165.0" y="80.0" width="25" height="16" rx="3"><title>Thu 01 Oct 03:00 · 0 prompts</title></rect><rect class="qe" x="192.0" y="80.0" width="25" height="16" rx="3"><title>Thu 01 Oct 04:00 · 0 prompts</title></rect><rect class="qe" x="219.0" y="80.0" width="25" height="16" rx="3"><title>Thu 01 Oct 05:00 · 0 prompts</title></rect><rect class="qe" x="246.0" y="80.0" width="25" height="16" rx="3"><title>Thu 01 Oct 06:00 · 0 prompts</title></rect><rect class="qe" x="273.0" y="80.0" width="25" height="16" rx="3"><title>Thu 01 Oct 07:00 · 0 prompts</title></rect><rect class="qe" x="300.0" y="80.0" width="25" height="16" rx="3"><title>Thu 01 Oct 08:00 · 0 prompts</title></rect><rect class="qe" x="327.0" y="80.0" width="25" height="16" rx="3"><title>Thu 01 Oct 09:00 · 0 prompts</title></rect><rect class="q1" x="354.0" y="80.0" width="25" height="16" rx="3"><title>Thu 01 Oct 10:00 · 2 prompts</title></rect><rect class="q5" x="381.0" y="80.0" width="25" height="16" rx="3"><title>Thu 01 Oct 11:00 · 8 prompts</title></rect><rect class="q4" x="408.0" y="80.0" width="25" height="16" rx="3"><title>Thu 01 Oct 12:00 · 6 prompts</title></rect><rect class="q2" x="435.0" y="80.0" width="25" height="16" rx="3"><title>Thu 01 Oct 13:00 · 3 prompts</title></rect><rect class="q2" x="462.0" y="80.0" width="25" height="16" rx="3"><title>Thu 01 Oct 14:00 · 4 prompts</title></rect><rect class="q1" x="489.0" y="80.0" width="25" height="16" rx="3"><title>Thu 01 Oct 15:00 · 2 prompts</title></rect><rect class="q2" x="516.0" y="80.0" width="25" height="16" rx="3"><title>Thu 01 Oct 16:00 · 3 prompts</title></rect><rect class="q0" x="543.0" y="80.0" width="25" height="16" rx="3"><title>Thu 01 Oct 17:00 · 1 prompt</title></rect><rect class="q4" x="570.0" y="80.0" width="25" height="16" rx="3"><title>Thu 01 Oct 18:00 · 6 prompts</title></rect><rect class="q5" x="597.0" y="80.0" width="25" height="16" rx="3"><title>Thu 01 Oct 19:00 · 8 prompts</title></rect><rect class="q2" x="624.0" y="80.0" width="25" height="16" rx="3"><title>Thu 01 Oct 20:00 · 3 prompts</title></rect><rect class="qe" x="651.0" y="80.0" width="25" height="16" rx="3"><title>Thu 01 Oct 21:00 · 0 prompts</title></rect><rect class="q1" x="678.0" y="80.0" width="25" height="16" rx="3"><title>Thu 01 Oct 22:00 · 2 prompts</title></rect><rect class="q2" x="705.0" y="80.0" width="25" height="16" rx="3"><title>Thu 01 Oct 23:00 · 4 prompts</title></rect><text class="ts" x="74" y="111.0" font-size="11" text-anchor="end">Fri 02 Oct</text><rect class="q2" x="84.0" y="98.0" width="25" height="16" rx="3"><title>Fri 02 Oct 00:00 · 3 prompts</title></rect><rect class="qe" x="111.0" y="98.0" width="25" height="16" rx="3"><title>Fri 02 Oct 01:00 · 0 prompts</title></rect><rect class="qe" x="138.0" y="98.0" width="25" height="16" rx="3"><title>Fri 02 Oct 02:00 · 0 prompts</title></rect><rect class="qe" x="165.0" y="98.0" width="25" height="16" rx="3"><title>Fri 02 Oct 03:00 · 0 prompts</title></rect><rect class="qe" x="192.0" y="98.0" width="25" height="16" rx="3"><title>Fri 02 Oct 04:00 · 0 prompts</title></rect><rect class="qe" x="219.0" y="98.0" width="25" height="16" rx="3"><title>Fri 02 Oct 05:00 · 0 prompts</title></rect><rect class="qe" x="246.0" y="98.0" width="25" height="16" rx="3"><title>Fri 02 Oct 06:00 · 0 prompts</title></rect><rect class="qe" x="273.0" y="98.0" width="25" height="16" rx="3"><title>Fri 02 Oct 07:00 · 0 prompts</title></rect><rect class="qe" x="300.0" y="98.0" width="25" height="16" rx="3"><title>Fri 02 Oct 08:00 · 0 prompts</title></rect><rect class="qe" x="327.0" y="98.0" width="25" height="16" rx="3"><title>Fri 02 Oct 09:00 · 0 prompts</title></rect><rect class="qe" x="354.0" y="98.0" width="25" height="16" rx="3"><title>Fri 02 Oct 10:00 · 0 prompts</title></rect><rect class="qe" x="381.0" y="98.0" width="25" height="16" rx="3"><title>Fri 02 Oct 11:00 · 0 prompts</title></rect><rect class="q0" x="408.0" y="98.0" width="25" height="16" rx="3"><title>Fri 02 Oct 12:00 · 1 prompt</title></rect><rect class="q2" x="435.0" y="98.0" width="25" height="16" rx="3"><title>Fri 02 Oct 13:00 · 4 prompts</title></rect><rect class="qe" x="462.0" y="98.0" width="25" height="16" rx="3"><title>Fri 02 Oct 14:00 · 0 prompts</title></rect><rect class="q0" x="489.0" y="98.0" width="25" height="16" rx="3"><title>Fri 02 Oct 15:00 · 1 prompt</title></rect><rect class="q4" x="516.0" y="98.0" width="25" height="16" rx="3"><title>Fri 02 Oct 16:00 · 7 prompts</title></rect><rect class="qe" x="543.0" y="98.0" width="25" height="16" rx="3"><title>Fri 02 Oct 17:00 · 0 prompts</title></rect><rect class="qe" x="570.0" y="98.0" width="25" height="16" rx="3"><title>Fri 02 Oct 18:00 · 0 prompts</title></rect><rect class="qe" x="597.0" y="98.0" width="25" height="16" rx="3"><title>Fri 02 Oct 19:00 · 0 prompts</title></rect><rect class="qe" x="624.0" y="98.0" width="25" height="16" rx="3"><title>Fri 02 Oct 20:00 · 0 prompts</title></rect><rect class="qe" x="651.0" y="98.0" width="25" height="16" rx="3"><title>Fri 02 Oct 21:00 · 0 prompts</title></rect><rect class="qe" x="678.0" y="98.0" width="25" height="16" rx="3"><title>Fri 02 Oct 22:00 · 0 prompts</title></rect><rect class="qe" x="705.0" y="98.0" width="25" height="16" rx="3"><title>Fri 02 Oct 23:00 · 0 prompts</title></rect><text class="tm" x="74" y="129.0" font-size="11" text-anchor="end">Sat 03 Oct</text><rect class="qe" x="84.0" y="116.0" width="25" height="16" rx="3"><title>Sat 03 Oct 00:00 · 0 prompts</title></rect><rect class="qe" x="111.0" y="116.0" width="25" height="16" rx="3"><title>Sat 03 Oct 01:00 · 0 prompts</title></rect><rect class="qe" x="138.0" y="116.0" width="25" height="16" rx="3"><title>Sat 03 Oct 02:00 · 0 prompts</title></rect><rect class="qe" x="165.0" y="116.0" width="25" height="16" rx="3"><title>Sat 03 Oct 03:00 · 0 prompts</title></rect><rect class="qe" x="192.0" y="116.0" width="25" height="16" rx="3"><title>Sat 03 Oct 04:00 · 0 prompts</title></rect><rect class="qe" x="219.0" y="116.0" width="25" height="16" rx="3"><title>Sat 03 Oct 05:00 · 0 prompts</title></rect><rect class="qe" x="246.0" y="116.0" width="25" height="16" rx="3"><title>Sat 03 Oct 06:00 · 0 prompts</title></rect><rect class="qe" x="273.0" y="116.0" width="25" height="16" rx="3"><title>Sat 03 Oct 07:00 · 0 prompts</title></rect><rect class="qe" x="300.0" y="116.0" width="25" height="16" rx="3"><title>Sat 03 Oct 08:00 · 0 prompts</title></rect><rect class="qe" x="327.0" y="116.0" width="25" height="16" rx="3"><title>Sat 03 Oct 09:00 · 0 prompts</title></rect><rect class="qe" x="354.0" y="116.0" width="25" height="16" rx="3"><title>Sat 03 Oct 10:00 · 0 prompts</title></rect><rect class="qe" x="381.0" y="116.0" width="25" height="16" rx="3"><title>Sat 03 Oct 11:00 · 0 prompts</title></rect><rect class="qe" x="408.0" y="116.0" width="25" height="16" rx="3"><title>Sat 03 Oct 12:00 · 0 prompts</title></rect><rect class="qe" x="435.0" y="116.0" width="25" height="16" rx="3"><title>Sat 03 Oct 13:00 · 0 prompts</title></rect><rect class="qe" x="462.0" y="116.0" width="25" height="16" rx="3"><title>Sat 03 Oct 14:00 · 0 prompts</title></rect><rect class="qe" x="489.0" y="116.0" width="25" height="16" rx="3"><title>Sat 03 Oct 15:00 · 0 prompts</title></rect><rect class="qe" x="516.0" y="116.0" width="25" height="16" rx="3"><title>Sat 03 Oct 16:00 · 0 prompts</title></rect><rect class="qe" x="543.0" y="116.0" width="25" height="16" rx="3"><title>Sat 03 Oct 17:00 · 0 prompts</title></rect><rect class="qe" x="570.0" y="116.0" width="25" height="16" rx="3"><title>Sat 03 Oct 18:00 · 0 prompts</title></rect><rect class="qe" x="597.0" y="116.0" width="25" height="16" rx="3"><title>Sat 03 Oct 19:00 · 0 prompts</title></rect><rect class="qe" x="624.0" y="116.0" width="25" height="16" rx="3"><title>Sat 03 Oct 20:00 · 0 prompts</title></rect><rect class="qe" x="651.0" y="116.0" width="25" height="16" rx="3"><title>Sat 03 Oct 21:00 · 0 prompts</title></rect><rect class="qe" x="678.0" y="116.0" width="25" height="16" rx="3"><title>Sat 03 Oct 22:00 · 0 prompts</title></rect><rect class="qe" x="705.0" y="116.0" width="25" height="16" rx="3"><title>Sat 03 Oct 23:00 · 0 prompts</title></rect><text class="tm" x="74" y="147.0" font-size="11" text-anchor="end">Sun 04 Oct</text><rect class="qe" x="84.0" y="134.0" width="25" height="16" rx="3"><title>Sun 04 Oct 00:00 · 0 prompts</title></rect><rect class="qe" x="111.0" y="134.0" width="25" height="16" rx="3"><title>Sun 04 Oct 01:00 · 0 prompts</title></rect><rect class="qe" x="138.0" y="134.0" width="25" height="16" rx="3"><title>Sun 04 Oct 02:00 · 0 prompts</title></rect><rect class="qe" x="165.0" y="134.0" width="25" height="16" rx="3"><title>Sun 04 Oct 03:00 · 0 prompts</title></rect><rect class="qe" x="192.0" y="134.0" width="25" height="16" rx="3"><title>Sun 04 Oct 04:00 · 0 prompts</title></rect><rect class="qe" x="219.0" y="134.0" width="25" height="16" rx="3"><title>Sun 04 Oct 05:00 · 0 prompts</title></rect><rect class="qe" x="246.0" y="134.0" width="25" height="16" rx="3"><title>Sun 04 Oct 06:00 · 0 prompts</title></rect><rect class="qe" x="273.0" y="134.0" width="25" height="16" rx="3"><title>Sun 04 Oct 07:00 · 0 prompts</title></rect><rect class="qe" x="300.0" y="134.0" width="25" height="16" rx="3"><title>Sun 04 Oct 08:00 · 0 prompts</title></rect><rect class="qe" x="327.0" y="134.0" width="25" height="16" rx="3"><title>Sun 04 Oct 09:00 · 0 prompts</title></rect><rect class="qe" x="354.0" y="134.0" width="25" height="16" rx="3"><title>Sun 04 Oct 10:00 · 0 prompts</title></rect><rect class="qe" x="381.0" y="134.0" width="25" height="16" rx="3"><title>Sun 04 Oct 11:00 · 0 prompts</title></rect><rect class="qe" x="408.0" y="134.0" width="25" height="16" rx="3"><title>Sun 04 Oct 12:00 · 0 prompts</title></rect><rect class="qe" x="435.0" y="134.0" width="25" height="16" rx="3"><title>Sun 04 Oct 13:00 · 0 prompts</title></rect><rect class="q6" x="462.0" y="134.0" width="25" height="16" rx="3"><title>Sun 04 Oct 14:00 · 10 prompts</title></rect><rect class="q5" x="489.0" y="134.0" width="25" height="16" rx="3"><title>Sun 04 Oct 15:00 · 8 prompts</title></rect><rect class="qe" x="516.0" y="134.0" width="25" height="16" rx="3"><title>Sun 04 Oct 16:00 · 0 prompts</title></rect><rect class="qe" x="543.0" y="134.0" width="25" height="16" rx="3"><title>Sun 04 Oct 17:00 · 0 prompts</title></rect><rect class="qe" x="570.0" y="134.0" width="25" height="16" rx="3"><title>Sun 04 Oct 18:00 · 0 prompts</title></rect><rect class="qe" x="597.0" y="134.0" width="25" height="16" rx="3"><title>Sun 04 Oct 19:00 · 0 prompts</title></rect><rect class="qe" x="624.0" y="134.0" width="25" height="16" rx="3"><title>Sun 04 Oct 20:00 · 0 prompts</title></rect><rect class="qe" x="651.0" y="134.0" width="25" height="16" rx="3"><title>Sun 04 Oct 21:00 · 0 prompts</title></rect><rect class="q3" x="678.0" y="134.0" width="25" height="16" rx="3"><title>Sun 04 Oct 22:00 · 5 prompts</title></rect><rect class="q1" x="705.0" y="134.0" width="25" height="16" rx="3"><title>Sun 04 Oct 23:00 · 2 prompts</title></rect><text class="tm" x="84" y="184" font-size="11">less</text><rect class="q0" x="118" y="174" width="18" height="12" rx="2"/><rect class="q1" x="138" y="174" width="18" height="12" rx="2"/><rect class="q2" x="158" y="174" width="18" height="12" rx="2"/><rect class="q3" x="178" y="174" width="18" height="12" rx="2"/><rect class="q4" x="198" y="174" width="18" height="12" rx="2"/><rect class="q5" x="218" y="174" width="18" height="12" rx="2"/><rect class="q6" x="238" y="174" width="18" height="12" rx="2"/><text class="tm" x="264" y="184" font-size="11">more (max 10 prompts)</text></svg>