<svg xmlns="http://www.w3.org/2000/svg" viewBox="0 0 760 294" width="760" height="294" role="img" aria-label="Row = day, cell = hour (Kuala Lumpur). Colour = device, split = several · number = sessions at once"><style>text{font-family:system-ui,-apple-system,"Segoe UI",sans-serif;font-variant-numeric:tabular-nums}.bg{fill:#fcfcfb;stroke:rgba(11,11,11,.10)}.tp{fill:#0b0b0b}.ts{fill:#52514e}.tm{fill:#898781}.grid{stroke:#e1e0d9;stroke-width:1}.base{stroke:#c3c2b7;stroke-width:1}.so{fill:#b5b3ad}.lo{stroke:#b5b3ad}.qe{fill:#f0efec}.ring{stroke:#fcfcfb}.area{fill-opacity:.1}.s0{fill:#2a78d6}.l0{stroke:#2a78d6}.s1{fill:#eb6834}.l1{stroke:#eb6834}.s2{fill:#1baf7a}.l2{stroke:#1baf7a}.s3{fill:#eda100}.l3{stroke:#eda100}.s4{fill:#e87ba4}.l4{stroke:#e87ba4}.s5{fill:#008300}.l5{stroke:#008300}.s6{fill:#4a3aa7}.l6{stroke:#4a3aa7}.s7{fill:#e34948}.l7{stroke:#e34948}.q0{fill:#cde2fb}.q1{fill:#9ec5f4}.q2{fill:#6da7ec}.q3{fill:#3987e5}.q4{fill:#256abf}.q5{fill:#184f95}.q6{fill:#0d366b}.r0{fill:#f8d4d4}.r1{fill:#ec8f8f}.r2{fill:#c42f2f}.a0{fill:#fbe3e3}.a1{fill:#f5b8b8}.a2{fill:#ec8f8f}.a3{fill:#d65252}.a4{fill:#a82525}.tq0{fill:#0b0b0b}.tq1{fill:#0b0b0b}.tq2{fill:#0b0b0b}.tq3{fill:#ffffff}.tq4{fill:#ffffff}.tq5{fill:#ffffff}.tq6{fill:#ffffff}.tr0{fill:#0b0b0b}.tr1{fill:#0b0b0b}.tr2{fill:#ffffff}.ta0{fill:#0b0b0b}.ta1{fill:#0b0b0b}.ta2{fill:#0b0b0b}.ta3{fill:#ffffff}.ta4{fill:#ffffff}.tw{fill:#ffffff}@media (prefers-color-scheme:dark){.bg{fill:#1a1a19;stroke:rgba(255,255,255,.10)}.tp{fill:#fff}.ts{fill:#c3c2b7}.tm{fill:#898781}.grid{stroke:#2c2c2a}.base{stroke:#383835}.so{fill:#5c5b57}.lo{stroke:#5c5b57}.qe{fill:#262624}.ring{stroke:#1a1a19}.s0{fill:#3987e5}.l0{stroke:#3987e5}.s1{fill:#d95926}.l1{stroke:#d95926}.s2{fill:#199e70}.l2{stroke:#199e70}.s3{fill:#c98500}.l3{stroke:#c98500}.s4{fill:#d55181}.l4{stroke:#d55181}.s5{fill:#008300}.l5{stroke:#008300}.s6{fill:#9085e9}.l6{stroke:#9085e9}.s7{fill:#e66767}.l7{stroke:#e66767}.q0{fill:#16263a}.q1{fill:#123a66}.q2{fill:#184f95}.q3{fill:#256abf}.q4{fill:#3987e5}.q5{fill:#6da7ec}.q6{fill:#b7d3f6}.r0{fill:#4a2023}.r1{fill:#8c2c2f}.r2{fill:#e25555}.a0{fill:#3a1a1c}.a1{fill:#5e2427}.a2{fill:#8c2c2f}.a3{fill:#c43c3f}.a4{fill:#f07070}.tq0{fill:#ffffff}.tq1{fill:#ffffff}.tq2{fill:#ffffff}.tq3{fill:#ffffff}.tq4{fill:#ffffff}.tq5{fill:#0b0b0b}.tq6{fill:#0b0b0b}.tr0{fill:#ffffff}.tr1{fill:#ffffff}.tr2{fill:#ffffff}.ta0{fill:#ffffff}.ta1{fill:#ffffff}.ta2{fill:#ffffff}.ta3{fill:#ffffff}.ta4{fill:#0b0b0b}.tw{fill:#ffffff}}</style><rect class="bg" x=".5" y=".5" width="759" height="293" rx="10"/><text class="ts" x="20" y="30" font-size="12">Row = day, cell = hour (Kuala Lumpur). Colour = device, split = several · number = sessions at once</text><g transform="translate(0,-20)"><rect class="s0" x="20.0" y="67" width="10" height="10" rx="2"/><text class="ts" x="35.0" y="76" font-size="12">mariia-macbook · 41 h</text><rect class="s1" x="200.0" y="67" width="10" height="10" rx="2"/><text class="ts" x="215.0" y="76" font-size="12">nik · 3 h</text><text class="tm" x="76.5" y="102" font-size="11" text-anchor="middle">00:00</text><text class="tm" x="151.5" y="102" font-size="11" text-anchor="middle">03:00</text><text class="tm" x="226.5" y="102" font-size="11" text-anchor="middle">06:00</text><text class="tm" x="301.5" y="102" font-size="11" text-anchor="middle">09:00</text><text class="tm" x="376.5" y="102" font-size="11" text-anchor="middle">12:00</text><text class="tm" x="451.5" y="102" font-size="11" text-anchor="middle">15:00</text><text class="tm" x="526.5" y="102" font-size="11" text-anchor="middle">18:00</text><text class="tm" x="601.5" y="102" font-size="11" text-anchor="middle">21:00</text><text class="ts" x="674" y="102" font-size="11">Active · parallel</text><text class="tm" x="56" y="124.0" font-size="11.5" text-anchor="end">Sat 03</text><rect class="qe" x="64.0" y="110" width="23" height="21" rx="3"/><rect class="qe" x="89.0" y="110" width="23" height="21" rx="3"/><rect class="qe" x="114.0" y="110" width="23" height="21" rx="3"/><rect class="qe" x="139.0" y="110" width="23" height="21" rx="3"/><rect class="qe" x="164.0" y="110" width="23" height="21" rx="3"/><rect class="qe" x="189.0" y="110" width="23" height="21" rx="3"/><rect class="qe" x="214.0" y="110" width="23" height="21" rx="3"/><rect class="qe" x="239.0" y="110" width="23" height="21" rx="3"/><rect class="qe" x="264.0" y="110" width="23" height="21" rx="3"/><rect class="qe" x="289.0" y="110" width="23" height="21" rx="3"/><rect class="qe" x="314.0" y="110" width="23" height="21" rx="3"/><rect class="qe" x="339.0" y="110" width="23" height="21" rx="3"/><rect class="qe" x="364.0" y="110" width="23" height="21" rx="3"/><rect class="qe" x="389.0" y="110" width="23" height="21" rx="3"/><rect class="qe" x="414.0" y="110" width="23" height="21" rx="3"/><rect class="qe" x="439.0" y="110" width="23" height="21" rx="3"/><rect class="qe" x="464.0" y="110" width="23" height="21" rx="3"/><rect class="qe" x="489.0" y="110" width="23" height="21" rx="3"/><rect class="qe" x="514.0" y="110" width="23" height="21" rx="3"/><rect class="qe" x="539.0" y="110" width="23" height="21" rx="3"/><rect class="qe" x="564.0" y="110" width="23" height="21" rx="3"/><rect class="qe" x="589.0" y="110" width="23" height="21" rx="3"/><rect class="qe" x="614.0" y="110" width="23" height="21" rx="3"/><rect class="qe" x="639.0" y="110" width="23" height="21" rx="3"/><text class="ts" x="674" y="124.0" font-size="11">–</text><text class="tm" x="56" y="148.0" font-size="11.5" text-anchor="end">Sun 04</text><rect class="qe" x="64.0" y="134" width="23" height="21" rx="3"/><rect class="qe" x="89.0" y="134" width="23" height="21" rx="3"/><rect class="qe" x="114.0" y="134" width="23" height="21" rx="3"/><rect class="qe" x="139.0" y="134" width="23" height="21" rx="3"/><rect class="qe" x="164.0" y="134" width="23" height="21" rx="3"/><rect class="qe" x="189.0" y="134" width="23" height="21" rx="3"/><rect class="qe" x="214.0" y="134" width="23" height="21" rx="3"/><rect class="qe" x="239.0" y="134" width="23" height="21" rx="3"/><rect class="qe" x="264.0" y="134" width="23" height="21" rx="3"/><rect class="qe" x="289.0" y="134" width="23" height="21" rx="3"/><rect class="qe" x="314.0" y="134" width="23" height="21" rx="3"/><rect class="qe" x="339.0" y="134" width="23" height="21" rx="3"/><rect class="qe" x="364.0" y="134" width="23" height="21" rx="3"/><rect class="qe" x="389.0" y="134" width="23" height="21" rx="3"/><rect class="s0" x="414.0" y="134" width="23.0" height="21" rx="3"/><rect x="414.0" y="134" width="23" height="21" fill="transparent"><title>Sun 04 14:00 · mariia-macbook · 2 sessions at once</title></rect><text class="tw" x="425.5" y="148.5" font-size="11" font-weight="700" text-anchor="middle">2</text><rect class="s0" x="439.0" y="134" width="23.0" height="21" rx="3"/><rect x="439.0" y="134" width="23" height="21" fill="transparent"><title>Sun 04 15:00 · mariia-macbook · 2 sessions at once</title></rect><text class="tw" x="450.5" y="148.5" font-size="11" font-weight="700" text-anchor="middle">2</text><rect class="qe" x="464.0" y="134" width="23" height="21" rx="3"/><rect class="qe" x="489.0" y="134" width="23" height="21" rx="3"/><rect class="qe" x="514.0" y="134" width="23" height="21" rx="3"/><rect class="qe" x="539.0" y="134" width="23" height="21" rx="3"/><rect class="qe" x="564.0" y="134" width="23" height="21" rx="3"/><rect class="qe" x="589.0" y="134" width="23" height="21" rx="3"/><rect class="s0" x="614.0" y="134" width="23.0" height="21" rx="3"/><rect x="614.0" y="134" width="23" height="21" fill="transparent"><title>Sun 04 22:00 · mariia-macbook · 2 sessions at once</title></rect><text class="tw" x="625.5" y="148.5" font-size="11" font-weight="700" text-anchor="middle">2</text><rect class="s0" x="639.0" y="134" width="23.0" height="21" rx="3"/><rect x="639.0" y="134" width="23" height="21" fill="transparent"><title>Sun 04 23:00 · mariia-macbook</title></rect><text class="ts" x="674" y="148.0" font-size="11">4 h · 3 h</text><text class="ts" x="56" y="172.0" font-size="11.5" text-anchor="end">Mon 05</text><rect class="s0" x="64.0" y="158" width="23.0" height="21" rx="3"/><rect x="64.0" y="158" width="23" height="21" fill="transparent"><title>Mon 05 00:00 · mariia-macbook</title></rect><rect class="qe" x="89.0" y="158" width="23" height="21" rx="3"/><rect class="qe" x="114.0" y="158" width="23" height="21" rx="3"/><rect class="qe" x="139.0" y="158" width="23" height="21" rx="3"/><rect class="qe" x="164.0" y="158" width="23" height="21" rx="3"/><rect class="qe" x="189.0" y="158" width="23" height="21" rx="3"/><rect class="qe" x="214.0" y="158" width="23" height="21" rx="3"/><rect class="qe" x="239.0" y="158" width="23" height="21" rx="3"/><rect class="qe" x="264.0" y="158" width="23" height="21" rx="3"/><rect class="s0" x="289.0" y="158" width="23.0" height="21" rx="3"/><rect x="289.0" y="158" width="23" height="21" fill="transparent"><title>Mon 05 09:00 · mariia-macbook · 2 sessions at once</title></rect><text class="tw" x="300.5" y="172.5" font-size="11" font-weight="700" text-anchor="middle">2</text><rect class="s0" x="314.0" y="158" width="10.7" height="21" rx="1"/><rect class="s1" x="325.5" y="158" width="11.5" height="21" rx="1"/><rect x="314.0" y="158" width="23" height="21" fill="transparent"><title>Mon 05 10:00 · mariia-macbook, nik</title></rect><rect class="s1" x="339.0" y="158" width="23.0" height="21" rx="3"/><rect x="339.0" y="158" width="23" height="21" fill="transparent"><title>Mon 05 11:00 · nik</title></rect><rect class="s1" x="364.0" y="158" width="23.0" height="21" rx="3"/><rect x="364.0" y="158" width="23" height="21" fill="transparent"><title>Mon 05 12:00 · nik</title></rect><rect class="qe" x="389.0" y="158" width="23" height="21" rx="3"/><rect class="s0" x="414.0" y="158" width="23.0" height="21" rx="3"/><rect x="414.0" y="158" width="23" height="21" fill="transparent"><title>Mon 05 14:00 · mariia-macbook</title></rect><rect class="qe" x="439.0" y="158" width="23" height="21" rx="3"/><rect class="qe" x="464.0" y="158" width="23" height="21" rx="3"/><rect class="qe" x="489.0" y="158" width="23" height="21" rx="3"/><rect class="qe" x="514.0" y="158" width="23" height="21" rx="3"/><rect class="qe" x="539.0" y="158" width="23" height="21" rx="3"/><rect class="qe" x="564.0" y="158" width="23" height="21" rx="3"/><rect class="qe" x="589.0" y="158" width="23" height="21" rx="3"/><rect class="qe" x="614.0" y="158" width="23" height="21" rx="3"/><rect class="qe" x="639.0" y="158" width="23" height="21" rx="3"/><text class="ts" x="674" y="172.0" font-size="11">6 h · 1 h</text><text class="ts" x="56" y="196.0" font-size="11.5" text-anchor="end">Tue 06</text><rect class="qe" x="64.0" y="182" width="23" height="21" rx="3"/><rect class="qe" x="89.0" y="182" width="23" height="21" rx="3"/><rect class="qe" x="114.0" y="182" width="23" height="21" rx="3"/><rect class="qe" x="139.0" y="182" width="23" height="21" rx="3"/><rect class="qe" x="164.0" y="182" width="23" height="21" rx="3"/><rect class="qe" x="189.0" y="182" width="23" height="21" rx="3"/><rect class="qe" x="214.0" y="182" width="23" height="21" rx="3"/><rect class="qe" x="239.0" y="182" width="23" height="21" rx="3"/><rect class="qe" x="264.0" y="182" width="23" height="21" rx="3"/><rect class="qe" x="289.0" y="182" width="23" height="21" rx="3"/><rect class="qe" x="314.0" y="182" width="23" height="21" rx="3"/><rect class="qe" x="339.0" y="182" width="23" height="21" rx="3"/><rect class="qe" x="364.0" y="182" width="23" height="21" rx="3"/><rect class="qe" x="389.0" y="182" width="23" height="21" rx="3"/><rect class="qe" x="414.0" y="182" width="23" height="21" rx="3"/><rect class="qe" x="439.0" y="182" width="23" height="21" rx="3"/><rect class="qe" x="464.0" y="182" width="23" height="21" rx="3"/><rect class="s0" x="489.0" y="182" width="23.0" height="21" rx="3"/><rect x="489.0" y="182" width="23" height="21" fill="transparent"><title>Tue 06 17:00 · mariia-macbook</title></rect><rect class="s0" x="514.0" y="182" width="23.0" height="21" rx="3"/><rect x="514.0" y="182" width="23" height="21" fill="transparent"><title>Tue 06 18:00 · mariia-macbook</title></rect><rect class="qe" x="539.0" y="182" width="23" height="21" rx="3"/><rect class="qe" x="564.0" y="182" width="23" height="21" rx="3"/><rect class="qe" x="589.0" y="182" width="23" height="21" rx="3"/><rect class="qe" x="614.0" y="182" width="23" height="21" rx="3"/><rect class="qe" x="639.0" y="182" width="23" height="21" rx="3"/><text class="ts" x="674" y="196.0" font-size="11">2 h · 0 h</text><text class="ts" x="56" y="220.0" font-size="11.5" text-anchor="end">Wed 07</text><rect class="qe" x="64.0" y="206" width="23" height="21" rx="3"/><rect class="qe" x="89.0" y="206" width="23" height="21" rx="3"/><rect class="qe" x="114.0" y="206" width="23" height="21" rx="3"/><rect class="qe" x="139.0" y="206" width="23" height="21" rx="3"/><rect class="qe" x="164.0" y="206" width="23" height="21" rx="3"/><rect class="qe" x="189.0" y="206" width="23" height="21" rx="3"/><rect class="qe" x="214.0" y="206" width="23" height="21" rx="3"/><rect class="qe" x="239.0" y="206" width="23" height="21" rx="3"/><rect class="qe" x="264.0" y="206" width="23" height="21" rx="3"/><rect class="qe" x="289.0" y="206" width="23" height="21" rx="3"/><rect class="s0" x="314.0" y="206" width="23.0" height="21" rx="3"/><rect x="314.0" y="206" width="23" height="21" fill="transparent"><title>Wed 07 10:00 · mariia-macbook</title></rect><rect class="s0" x="339.0" y="206" width="23.0" height="21" rx="3"/><rect x="339.0" y="206" width="23" height="21" fill="transparent"><title>Wed 07 11:00 · mariia-macbook</title></rect><rect class="s0" x="364.0" y="206" width="23.0" height="21" rx="3"/><rect x="364.0" y="206" width="23" height="21" fill="transparent"><title>Wed 07 12:00 · mariia-macbook</title></rect><rect class="s0" x="389.0" y="206" width="23.0" height="21" rx="3"/><rect x="389.0" y="206" width="23" height="21" fill="transparent"><title>Wed 07 13:00 · mariia-macbook</title></rect><rect class="s0" x="414.0" y="206" width="23.0" height="21" rx="3"/><rect x="414.0" y="206" width="23" height="21" fill="transparent"><title>Wed 07 14:00 · mariia-macbook</title></rect><rect class="s0" x="439.0" y="206" width="23.0" height="21" rx="3"/><rect x="439.0" y="206" width="23" height="21" fill="transparent"><title>Wed 07 15:00 · mariia-macbook</title></rect><rect class="s0" x="464.0" y="206" width="23.0" height="21" rx="3"/><rect x="464.0" y="206" width="23" height="21" fill="transparent"><title>Wed 07 16:00 · mariia-macbook</title></rect><rect class="s0" x="489.0" y="206" width="23.0" height="21" rx="3"/><rect x="489.0" y="206" width="23" height="21" fill="transparent"><title>Wed 07 17:00 · mariia-macbook</title></rect><rect class="s0" x="514.0" y="206" width="23.0" height="21" rx="3"/><rect x="514.0" y="206" width="23" height="21" fill="transparent"><title>Wed 07 18:00 · mariia-macbook</title></rect><rect class="s0" x="539.0" y="206" width="23.0" height="21" rx="3"/><rect x="539.0" y="206" width="23" height="21" fill="transparent"><title>Wed 07 19:00 · mariia-macbook</title></rect><rect class="s0" x="564.0" y="206" width="23.0" height="21" rx="3"/><rect x="564.0" y="206" width="23" height="21" fill="transparent"><title>Wed 07 20:00 · mariia-macbook</title></rect><rect class="qe" x="589.0" y="206" width="23" height="21" rx="3"/><rect class="qe" x="614.0" y="206" width="23" height="21" rx="3"/><rect class="s0" x="639.0" y="206" width="23.0" height="21" rx="3"/><rect x="639.0" y="206" width="23" height="21" fill="transparent"><title>Wed 07 23:00 · mariia-macbook</title></rect><text class="ts" x="674" y="220.0" font-size="11">12 h · 0 h</text><text class="ts" x="56" y="244.0" font-size="11.5" text-anchor="end">Thu 08</text><rect class="s0" x="64.0" y="230" width="23.0" height="21" rx="3"/><rect x="64.0" y="230" width="23" height="21" fill="transparent"><title>Thu 08 00:00 · mariia-macbook</title></rect><rect class="s0" x="89.0" y="230" width="23.0" height="21" rx="3"/><rect x="89.0" y="230" width="23" height="21" fill="transparent"><title>Thu 08 01:00 · mariia-macbook</title></rect><rect class="s0" x="114.0" y="230" width="23.0" height="21" rx="3"/><rect x="114.0" y="230" width="23" height="21" fill="transparent"><title>Thu 08 02:00 · mariia-macbook</title></rect><rect class="s0" x="139.0" y="230" width="23.0" height="21" rx="3"/><rect x="139.0" y="230" width="23" height="21" fill="transparent"><title>Thu 08 03:00 · mariia-macbook</title></rect><rect class="qe" x="164.0" y="230" width="23" height="21" rx="3"/><rect class="qe" x="189.0" y="230" width="23" height="21" rx="3"/><rect class="qe" x="214.0" y="230" width="23" height="21" rx="3"/><rect class="qe" x="239.0" y="230" width="23" height="21" rx="3"/><rect class="qe" x="264.0" y="230" width="23" height="21" rx="3"/><rect class="qe" x="289.0" y="230" width="23" height="21" rx="3"/><rect class="qe" x="314.0" y="230" width="23" height="21" rx="3"/><rect class="qe" x="339.0" y="230" width="23" height="21" rx="3"/><rect class="s0" x="364.0" y="230" width="23.0" height="21" rx="3"/><rect x="364.0" y="230" width="23" height="21" fill="transparent"><title>Thu 08 12:00 · mariia-macbook</title></rect><rect class="s0" x="389.0" y="230" width="23.0" height="21" rx="3"/><rect x="389.0" y="230" width="23" height="21" fill="transparent"><title>Thu 08 13:00 · mariia-macbook</title></rect><rect class="s0" x="414.0" y="230" width="23.0" height="21" rx="3"/><rect x="414.0" y="230" width="23" height="21" fill="transparent"><title>Thu 08 14:00 · mariia-macbook</title></rect><rect class="s0" x="439.0" y="230" width="23.0" height="21" rx="3"/><rect x="439.0" y="230" width="23" height="21" fill="transparent"><title>Thu 08 15:00 · mariia-macbook</title></rect><rect class="s0" x="464.0" y="230" width="23.0" height="21" rx="3"/><rect x="464.0" y="230" width="23" height="21" fill="transparent"><title>Thu 08 16:00 · mariia-macbook</title></rect><rect class="s0" x="489.0" y="230" width="23.0" height="21" rx="3"/><rect x="489.0" y="230" width="23" height="21" fill="transparent"><title>Thu 08 17:00 · mariia-macbook</title></rect><rect class="s0" x="514.0" y="230" width="23.0" height="21" rx="3"/><rect x="514.0" y="230" width="23" height="21" fill="transparent"><title>Thu 08 18:00 · mariia-macbook</title></rect><rect class="s0" x="539.0" y="230" width="23.0" height="21" rx="3"/><rect x="539.0" y="230" width="23" height="21" fill="transparent"><title>Thu 08 19:00 · mariia-macbook</title></rect><rect class="s0" x="564.0" y="230" width="23.0" height="21" rx="3"/><rect x="564.0" y="230" width="23" height="21" fill="transparent"><title>Thu 08 20:00 · mariia-macbook</title></rect><rect class="s0" x="589.0" y="230" width="23.0" height="21" rx="3"/><rect x="589.0" y="230" width="23" height="21" fill="transparent"><title>Thu 08 21:00 · mariia-macbook</title></rect><rect class="qe" x="614.0" y="230" width="23" height="21" rx="3"/><rect class="qe" x="639.0" y="230" width="23" height="21" rx="3"/><text class="ts" x="674" y="244.0" font-size="11">14 h · 0 h</text><text class="ts" x="56" y="268.0" font-size="11.5" text-anchor="end">Fri 09</text><rect class="qe" x="64.0" y="254" width="23" height="21" rx="3"/><rect class="qe" x="89.0" y="254" width="23" height="21" rx="3"/><rect class="qe" x="114.0" y="254" width="23" height="21" rx="3"/><rect class="qe" x="139.0" y="254" width="23" height="21" rx="3"/><rect class="qe" x="164.0" y="254" width="23" height="21" rx="3"/><rect class="qe" x="189.0" y="254" width="23" height="21" rx="3"/><rect class="qe" x="214.0" y="254" width="23" height="21" rx="3"/><rect class="qe" x="239.0" y="254" width="23" height="21" rx="3"/><rect class="qe" x="264.0" y="254" width="23" height="21" rx="3"/><rect class="s0" x="289.0" y="254" width="23.0" height="21" rx="3"/><rect x="289.0" y="254" width="23" height="21" fill="transparent"><title>Fri 09 09:00 · mariia-macbook</title></rect><rect class="s0" x="314.0" y="254" width="23.0" height="21" rx="3"/><rect x="314.0" y="254" width="23" height="21" fill="transparent"><title>Fri 09 10:00 · mariia-macbook</title></rect><rect class="s0" x="339.0" y="254" width="23.0" height="21" rx="3"/><rect x="339.0" y="254" width="23" height="21" fill="transparent"><title>Fri 09 11:00 · mariia-macbook</title></rect><rect class="s0" x="364.0" y="254" width="23.0" height="21" rx="3"/><rect x="364.0" y="254" width="23" height="21" fill="transparent"><title>Fri 09 12:00 · mariia-macbook</title></rect><rect class="s0" x="389.0" y="254" width="23.0" height="21" rx="3"/><rect x="389.0" y="254" width="23" height="21" fill="transparent"><title>Fri 09 13:00 · mariia-macbook</title></rect><rect class="qe" x="414.0" y="254" width="23" height="21" rx="3"/><rect class="qe" x="439.0" y="254" width="23" height="21" rx="3"/><rect class="qe" x="464.0" y="254" width="23" height="21" rx="3"/><rect class="qe" x="489.0" y="254" width="23" height="21" rx="3"/><rect class="qe" x="514.0" y="254" width="23" height="21" rx="3"/><rect class="qe" x="539.0" y="254" width="23" height="21" rx="3"/><rect class="qe" x="564.0" y="254" width="23" height="21" rx="3"/><rect class="qe" x="589.0" y="254" width="23" height="21" rx="3"/><rect class="qe" x="614.0" y="254" width="23" height="21" rx="3"/><rect class="qe" x="639.0" y="254" width="23" height="21" rx="3"/><text class="ts" x="674" y="268.0" font-size="11">5 h · 0 h</text><text class="tm" x="20" y="302" font-size="11">Legend: hours each device was active in these 7 days. Right: hours with any device active · hours with 2+ sessions at once.</text></g></svg>